<svg width="14" height="14" viewBox="0 0 14 14" fill="none" xmlns="http://www.w3.org/2000/svg">
<path d="M11.2952 5.66191C11.294 4.50838 11.8377 3.42224 12.7613 2.733C12.8426 2.66917 12.8942 2.57481 12.9042 2.47188C12.9142 2.36894 12.8817 2.26639 12.8142 2.18808C12.1176 1.41384 11.1408 0.950609 10.1012 0.901481C8.82406 0.780389 7.60736 1.65831 6.95745 1.65831C6.30753 1.65831 5.24953 0.901481 4.19153 0.901481C2.7668 0.946076 1.47125 1.74008 0.783259 2.99032C-0.667713 5.51811 0.412959 9.22655 1.78836 11.3003C2.47606 12.2993 3.29979 13.4269 4.38802 13.3891C5.47625 13.3512 5.82387 12.7155 7.08592 12.7155C8.34796 12.7155 8.70315 13.3891 9.80649 13.3664C10.9098 13.3437 11.6731 12.3447 12.3684 11.3457C12.795 10.7172 13.1427 10.0385 13.4037 9.32494C13.4677 9.14918 13.3938 8.95298 13.2299 8.86328C12.0388 8.24157 11.2927 7.00706 11.2952 5.66191Z" fill="white"/>
</svg>
